<mxfile host="app.diagrams.net" agent="Mozilla/5.0 (Windows NT 10.0; Win64; x64) AppleWebKit/537.36 (KHTML, like Gecko) Chrome/136.0.0.0 Safari/537.36" version="27.0.6">
  <diagram name="Página-1" id="Cm2Tw6zdbFbT7ZADNC9z">
    <mxGraphModel grid="1" page="1" gridSize="10" guides="1" tooltips="1" connect="1" arrows="1" fold="1" pageScale="1" pageWidth="827" pageHeight="1169" math="0" shadow="0">
      <root>
        <mxCell id="0" />
        <mxCell id="1" parent="0" />
        <mxCell id="Rbg_mW9AF_iypeuBsvbK-1" value="kafka_consumer_thread(router_id)" style="shape=trapezoid;perimeter=trapezoidPerimeter;fixedSize=1;strokeWidth=2;whiteSpace=wrap;" vertex="1" parent="1">
          <mxGeometry x="866" y="160" width="304" height="39" as="geometry" />
        </mxCell>
        <mxCell id="Rbg_mW9AF_iypeuBsvbK-2" value="topic = f&#39;ML_{router_id}&#39;" style="whiteSpace=wrap;strokeWidth=2;" vertex="1" parent="1">
          <mxGeometry x="902" y="249" width="232" height="54" as="geometry" />
        </mxCell>
        <mxCell id="Rbg_mW9AF_iypeuBsvbK-3" value="Crear KafkaConsumer" style="whiteSpace=wrap;strokeWidth=2;" vertex="1" parent="1">
          <mxGeometry x="911" y="353" width="214" height="54" as="geometry" />
        </mxCell>
        <mxCell id="Rbg_mW9AF_iypeuBsvbK-4" value="Para cada mensaje recibido" style="whiteSpace=wrap;strokeWidth=2;" vertex="1" parent="1">
          <mxGeometry x="889" y="457" width="258" height="54" as="geometry" />
        </mxCell>
        <mxCell id="Rbg_mW9AF_iypeuBsvbK-5" value="data = msg.value" style="whiteSpace=wrap;strokeWidth=2;" vertex="1" parent="1">
          <mxGeometry x="927" y="561" width="182" height="54" as="geometry" />
        </mxCell>
        <mxCell id="Rbg_mW9AF_iypeuBsvbK-21" value="¿energy o usage o ts&#xa;no son None?" style="rhombus;strokeWidth=2;whiteSpace=wrap;" vertex="1" parent="1">
          <mxGeometry x="879" y="972" width="278" height="278" as="geometry" />
        </mxCell>
        <mxCell id="Rbg_mW9AF_iypeuBsvbK-22" value="Continuar bucle" style="whiteSpace=wrap;strokeWidth=2;" vertex="1" parent="1">
          <mxGeometry x="931" y="1450" width="174" height="54" as="geometry" />
        </mxCell>
        <mxCell id="Rbg_mW9AF_iypeuBsvbK-23" value="Actualizar router_state[router_id]" style="whiteSpace=wrap;strokeWidth=2;" vertex="1" parent="1">
          <mxGeometry x="981" y="1322" width="260" height="78" as="geometry" />
        </mxCell>
        <mxCell id="Rbg_mW9AF_iypeuBsvbK-24" value="" style="curved=1;startArrow=none;endArrow=block;exitX=0.5;exitY=1;entryX=0.5;entryY=0;rounded=0;" edge="1" parent="1" source="Rbg_mW9AF_iypeuBsvbK-1" target="Rbg_mW9AF_iypeuBsvbK-2">
          <mxGeometry relative="1" as="geometry">
            <Array as="points" />
          </mxGeometry>
        </mxCell>
        <mxCell id="Rbg_mW9AF_iypeuBsvbK-25" value="" style="curved=1;startArrow=none;endArrow=block;exitX=0.5;exitY=1;entryX=0.5;entryY=0;rounded=0;" edge="1" parent="1" source="Rbg_mW9AF_iypeuBsvbK-2" target="Rbg_mW9AF_iypeuBsvbK-3">
          <mxGeometry relative="1" as="geometry">
            <Array as="points" />
          </mxGeometry>
        </mxCell>
        <mxCell id="Rbg_mW9AF_iypeuBsvbK-26" value="" style="curved=1;startArrow=none;endArrow=block;exitX=0.5;exitY=1;entryX=0.5;entryY=0;rounded=0;" edge="1" parent="1" source="Rbg_mW9AF_iypeuBsvbK-3" target="Rbg_mW9AF_iypeuBsvbK-4">
          <mxGeometry relative="1" as="geometry">
            <Array as="points" />
          </mxGeometry>
        </mxCell>
        <mxCell id="Rbg_mW9AF_iypeuBsvbK-27" value="" style="curved=1;startArrow=none;endArrow=block;exitX=0.5;exitY=1;entryX=0.5;entryY=0;rounded=0;" edge="1" parent="1" source="Rbg_mW9AF_iypeuBsvbK-4" target="Rbg_mW9AF_iypeuBsvbK-5">
          <mxGeometry relative="1" as="geometry">
            <Array as="points" />
          </mxGeometry>
        </mxCell>
        <mxCell id="Rbg_mW9AF_iypeuBsvbK-47" value="No" style="curved=1;startArrow=none;endArrow=block;exitX=0.27;exitY=1;entryX=0.25;entryY=0;rounded=0;" edge="1" parent="1" source="Rbg_mW9AF_iypeuBsvbK-21" target="Rbg_mW9AF_iypeuBsvbK-22">
          <mxGeometry relative="1" as="geometry">
            <Array as="points">
              <mxPoint x="935" y="1286" />
              <mxPoint x="935" y="1425" />
            </Array>
          </mxGeometry>
        </mxCell>
        <mxCell id="Rbg_mW9AF_iypeuBsvbK-48" value="Sí" style="curved=1;startArrow=none;endArrow=block;exitX=0.77;exitY=1;entryX=0.5;entryY=0;rounded=0;" edge="1" parent="1" source="Rbg_mW9AF_iypeuBsvbK-21" target="Rbg_mW9AF_iypeuBsvbK-23">
          <mxGeometry relative="1" as="geometry">
            <Array as="points">
              <mxPoint x="1111" y="1286" />
            </Array>
          </mxGeometry>
        </mxCell>
        <mxCell id="Rbg_mW9AF_iypeuBsvbK-49" value="" style="curved=1;startArrow=none;endArrow=block;exitX=0.5;exitY=1;entryX=0.78;entryY=0;rounded=0;" edge="1" parent="1" source="Rbg_mW9AF_iypeuBsvbK-23" target="Rbg_mW9AF_iypeuBsvbK-22">
          <mxGeometry relative="1" as="geometry">
            <Array as="points">
              <mxPoint x="1111" y="1425" />
            </Array>
          </mxGeometry>
        </mxCell>
        <mxCell id="Rbg_mW9AF_iypeuBsvbK-53" value="Obtención del valor de energy" style="whiteSpace=wrap;strokeWidth=2;strokeColor=#FF0000;" vertex="1" parent="1">
          <mxGeometry x="915.25" y="663" width="205.5" height="54" as="geometry" />
        </mxCell>
        <mxCell id="Rbg_mW9AF_iypeuBsvbK-57" value="" style="curved=1;startArrow=none;endArrow=block;exitX=0.5;exitY=1;entryX=0.5;entryY=0;rounded=0;" edge="1" parent="1">
          <mxGeometry relative="1" as="geometry">
            <Array as="points" />
            <mxPoint x="1017.62" y="615" as="sourcePoint" />
            <mxPoint x="1017.62" y="665" as="targetPoint" />
          </mxGeometry>
        </mxCell>
        <mxCell id="Rbg_mW9AF_iypeuBsvbK-60" value="" style="curved=1;startArrow=none;endArrow=block;exitX=0.5;exitY=1;entryX=0.5;entryY=0;rounded=0;" edge="1" parent="1">
          <mxGeometry relative="1" as="geometry">
            <Array as="points" />
            <mxPoint x="1017.57" y="717" as="sourcePoint" />
            <mxPoint x="1017.57" y="767" as="targetPoint" />
          </mxGeometry>
        </mxCell>
        <mxCell id="Rbg_mW9AF_iypeuBsvbK-61" value="Obtención de la utilización" style="whiteSpace=wrap;strokeWidth=2;strokeColor=#007FFF;" vertex="1" parent="1">
          <mxGeometry x="915.25" y="767" width="205.5" height="54" as="geometry" />
        </mxCell>
        <mxCell id="Rbg_mW9AF_iypeuBsvbK-62" value="" style="curved=1;startArrow=none;endArrow=block;exitX=0.5;exitY=1;entryX=0.5;entryY=0;rounded=0;" edge="1" parent="1">
          <mxGeometry relative="1" as="geometry">
            <Array as="points" />
            <mxPoint x="1017.57" y="821" as="sourcePoint" />
            <mxPoint x="1017.57" y="871" as="targetPoint" />
          </mxGeometry>
        </mxCell>
        <mxCell id="Rbg_mW9AF_iypeuBsvbK-63" value="Obtención del ts" style="whiteSpace=wrap;strokeWidth=2;strokeColor=#FFD966;" vertex="1" parent="1">
          <mxGeometry x="915.25" y="870" width="205.5" height="54" as="geometry" />
        </mxCell>
        <mxCell id="Rbg_mW9AF_iypeuBsvbK-64" value="" style="curved=1;startArrow=none;endArrow=block;exitX=0.5;exitY=1;entryX=0.5;entryY=0;rounded=0;" edge="1" parent="1">
          <mxGeometry relative="1" as="geometry">
            <Array as="points" />
            <mxPoint x="1017.57" y="922" as="sourcePoint" />
            <mxPoint x="1017.57" y="972" as="targetPoint" />
          </mxGeometry>
        </mxCell>
      </root>
    </mxGraphModel>
  </diagram>
</mxfile>
